<svg xmlns="http://www.w3.org/2000/svg" width="960" height="828" font-family="sans-serif" font-size="12"><rect width="960" height="828" fill="white"/><text x="64" y="20" font-size="15" font-weight="bold">both  s3dl-bench-usw2-801400661003  (20260716T174022)</text><line x1="64" y1="190" x2="936" y2="190" stroke="#bbb"/><line x1="64" y1="46" x2="64" y2="190" stroke="#bbb"/><text x="64" y="42" font-weight="bold" fill="#2563eb">Throughput (Gbps)</text><text x="58" y="50" text-anchor="end" fill="#666">382.3</text><text x="58" y="194" text-anchor="end" fill="#666">0</text><text x="936" y="208" text-anchor="end" fill="#666">50.5s</text><polyline fill="none" stroke="#2563eb" stroke-width="1.5" points="68.3,190.0 72.6,189.6 77.0,160.1 81.3,110.7 85.6,113.6 89.9,105.5 94.2,75.1 98.5,187.2 102.9,190.0 107.2,189.6 111.5,157.6 115.8,77.6 120.1,151.6 124.4,81.6 128.8,94.5 133.1,189.2 137.4,190.0 141.7,189.6 146.0,162.5 150.3,90.9 154.7,132.6 159.0,111.1 163.3,65.8 167.6,189.2 171.9,190.0 176.2,190.0 180.6,190.0 184.9,167.3 189.2,76.3 193.5,149.6 197.8,116.8 202.1,54.5 206.5,187.2 210.8,190.0 215.1,190.0 219.4,180.3 223.7,137.0 228.0,94.9 232.4,144.3 236.7,46.0 241.0,149.6 245.3,189.6 249.6,190.0 253.9,190.0 258.3,156.8 262.6,95.3 266.9,139.8 271.2,107.1 275.5,64.6 279.8,188.0 284.2,190.0 288.5,190.0 292.8,185.6 297.1,143.1 301.4,84.4 305.7,147.1 310.1,66.2 314.4,125.7 318.7,189.6 323.0,190.0 327.3,188.0 331.6,150.4 336.0,85.6 340.3,147.5 344.6,85.6 348.9,94.9 353.2,189.6 357.5,190.0 361.9,186.4 366.2,134.6 370.5,96.2 374.8,147.1 379.1,54.9 383.4,133.0 387.8,190.0 392.1,190.0 396.4,189.6 400.7,190.0 405.0,189.6 409.3,148.3 413.7,93.3 418.0,144.7 422.3,90.1 426.6,87.3 430.9,188.4 435.2,190.0 443.9,190.0 448.2,190.0 452.5,150.4 456.8,147.5 461.1,105.9 465.5,99.8 469.8,127.7 474.1,160.9 478.4,173.4 482.7,137.8 487.0,110.3 491.4,123.3 495.7,116.0 500.0,121.2 504.3,124.9 508.6,110.3 513.0,126.5 517.3,113.6 521.6,121.6 525.9,116.0 530.2,127.3 534.5,113.1 538.9,121.2 543.2,114.8 547.5,123.3 551.8,124.1 556.1,106.7 560.4,128.5 564.8,114.8 569.1,117.6 573.4,123.7 577.7,116.0 582.0,124.1 586.3,117.2 590.7,111.1 595.0,123.3 599.3,123.7 603.6,122.9 607.9,112.3 612.2,115.2 616.6,122.0 620.9,121.6 625.2,120.4 629.5,118.8 633.8,114.8 638.1,121.6 642.5,118.4 646.8,118.8 651.1,118.4 655.4,122.0 659.7,116.4 664.0,114.0 668.4,126.5 672.7,116.4 677.0,117.6 681.3,121.6 685.6,108.3 689.9,75.9 694.3,185.6 698.6,184.7 702.9,143.5 707.2,134.6 711.5,103.8 715.8,108.7 720.2,119.2 724.5,122.4 728.8,121.6 733.1,126.5 737.4,112.3 741.7,116.4 746.1,119.2 750.4,120.4 754.7,118.8 759.0,115.6 763.3,122.0 767.6,114.4 772.0,125.3 776.3,117.2 780.6,116.4 784.9,120.4 789.2,121.2 793.5,118.8 797.9,118.8 802.2,116.0 806.5,121.2 810.8,121.6 815.1,115.2 819.4,120.0 823.8,116.4 828.1,122.0 832.4,117.6 836.7,122.5 841.0,118.8 845.3,114.3 849.7,121.2 854.0,118.4 858.3,110.7 862.6,127.7 866.9,119.6 871.2,113.1 875.6,126.9 879.9,116.8 884.2,122.5 888.5,113.6 892.8,118.0 897.1,120.4 901.5,118.0 905.8,118.4 910.1,126.1 914.4,113.5 918.7,119.2 923.0,119.6 927.4,114.4 931.7,69.5 936.0,181.5 "/><line x1="64" y1="380" x2="936" y2="380" stroke="#bbb"/><line x1="64" y1="236" x2="64" y2="380" stroke="#bbb"/><text x="64" y="232" font-weight="bold" fill="#dc2626">RSS (MiB)</text><text x="58" y="240" text-anchor="end" fill="#666">48946.5</text><text x="58" y="384" text-anchor="end" fill="#666">0</text><text x="936" y="398" text-anchor="end" fill="#666">50.5s</text><polyline fill="none" stroke="#dc2626" stroke-width="1.5" points="68.3,379.4 72.6,379.4 77.0,379.4 81.3,379.4 85.6,379.4 89.9,379.4 94.2,379.4 98.5,379.4 102.9,379.3 107.2,379.3 111.5,379.3 115.8,379.3 120.1,379.3 124.4,379.3 128.8,379.3 133.1,379.3 137.4,379.3 141.7,379.3 146.0,379.3 150.3,379.3 154.7,379.3 159.0,379.3 163.3,379.3 167.6,379.3 171.9,379.3 176.2,379.3 180.6,379.3 184.9,379.3 189.2,379.3 193.5,379.3 197.8,379.3 202.1,379.3 206.5,379.3 210.8,379.3 215.1,379.3 219.4,379.3 223.7,379.3 228.0,379.3 232.4,379.3 236.7,379.3 241.0,379.3 245.3,379.3 249.6,379.3 253.9,379.3 258.3,379.3 262.6,379.3 266.9,379.3 271.2,379.3 275.5,379.3 279.8,379.3 284.2,379.3 288.5,379.3 292.8,379.3 297.1,379.3 301.4,379.3 305.7,379.3 310.1,379.3 314.4,379.3 318.7,379.3 323.0,379.3 327.3,379.3 331.6,379.3 336.0,379.3 340.3,379.3 344.6,379.3 348.9,379.3 353.2,379.3 357.5,379.3 361.9,379.3 366.2,379.3 370.5,379.3 374.8,379.3 379.1,379.3 383.4,379.3 387.8,379.3 392.1,379.3 396.4,379.3 400.7,379.3 405.0,379.3 409.3,379.2 413.7,379.2 418.0,379.2 422.3,379.2 426.6,379.2 430.9,379.2 435.2,379.2 443.9,379.6 448.2,368.9 452.5,352.4 456.8,335.8 461.1,319.4 465.5,303.1 469.8,287.6 474.1,279.1 478.4,274.4 482.7,266.2 487.0,258.4 491.4,256.0 495.7,255.6 500.0,255.5 504.3,255.5 508.6,255.4 513.0,255.4 517.3,255.4 521.6,255.4 525.9,255.3 530.2,255.3 534.5,255.2 538.9,255.2 543.2,255.2 547.5,255.1 551.8,255.1 556.1,255.1 560.4,255.0 564.8,255.0 569.1,255.0 573.4,254.9 577.7,254.9 582.0,254.9 586.3,254.8 590.7,254.8 595.0,254.8 599.3,254.7 603.6,254.7 607.9,254.7 612.2,254.6 616.6,254.6 620.9,254.6 625.2,254.5 629.5,254.5 633.8,254.4 638.1,254.4 642.5,254.4 646.8,254.3 651.1,254.3 655.4,254.3 659.7,254.2 664.0,254.2 668.4,254.2 672.7,254.1 677.0,254.1 681.3,254.1 685.6,254.0 689.9,254.0 694.3,254.0 698.6,254.0 702.9,253.9 707.2,253.9 711.5,253.9 715.8,253.8 720.2,253.8 724.5,252.3 728.8,249.4 733.1,248.1 737.4,247.5 741.7,247.3 746.1,247.2 750.4,247.1 754.7,247.1 759.0,247.1 763.3,247.0 767.6,247.0 772.0,247.0 776.3,246.9 780.6,246.9 784.9,246.9 789.2,246.8 793.5,246.8 797.9,246.8 802.2,246.7 806.5,246.7 810.8,246.7 815.1,246.6 819.4,246.6 823.8,246.5 828.1,246.5 832.4,246.5 836.7,246.4 841.0,246.4 845.3,246.4 849.7,246.3 854.0,246.3 858.3,246.3 862.6,246.2 866.9,246.2 871.2,246.2 875.6,246.1 879.9,246.1 884.2,246.1 888.5,246.0 892.8,246.0 897.1,245.9 901.5,245.8 905.8,242.0 910.1,238.8 914.4,237.1 918.7,236.3 923.0,236.1 927.4,236.0 931.7,236.0 936.0,236.0 "/><line x1="64" y1="570" x2="936" y2="570" stroke="#bbb"/><line x1="64" y1="426" x2="64" y2="570" stroke="#bbb"/><text x="64" y="422" font-weight="bold" fill="#16a34a">In-flight (reqs)</text><text x="58" y="430" text-anchor="end" fill="#666">512.0</text><text x="58" y="574" text-anchor="end" fill="#666">0</text><text x="936" y="588" text-anchor="end" fill="#666">50.5s</text><polyline fill="none" stroke="#16a34a" stroke-width="1.5" points="68.3,426.0 72.6,426.0 77.0,426.0 81.3,426.0 85.6,429.4 89.9,488.2 94.2,568.0 98.5,570.0 102.9,426.0 107.2,426.0 111.5,426.0 115.8,426.0 120.1,427.7 124.4,503.1 128.8,569.4 133.1,570.0 137.4,442.9 141.7,426.0 146.0,426.0 150.3,426.0 154.7,428.2 159.0,483.1 163.3,569.4 167.6,570.0 171.9,570.0 176.2,456.9 180.6,426.0 184.9,426.0 189.2,426.0 193.5,426.0 197.8,473.8 202.1,568.0 206.5,570.0 210.8,570.0 215.1,426.0 219.4,426.0 223.7,426.0 228.0,426.0 232.4,441.5 236.7,541.6 241.0,569.7 245.3,570.0 249.6,451.6 253.9,426.0 258.3,426.0 262.6,426.0 266.9,426.0 271.2,481.4 275.5,568.6 279.8,570.0 284.2,570.0 288.5,426.0 292.8,426.0 297.1,426.0 301.4,426.0 305.7,438.9 310.1,525.0 314.4,569.7 318.7,570.0 323.0,426.0 327.3,426.0 331.6,426.0 336.0,426.0 340.3,431.1 344.6,503.6 348.9,569.7 353.2,570.0 357.5,426.0 361.9,426.0 366.2,426.0 370.5,426.0 374.8,436.1 379.1,530.1 383.4,569.7 387.8,569.7 392.1,569.7 396.4,570.0 400.7,426.0 405.0,426.0 409.3,426.0 413.7,426.0 418.0,428.0 422.3,497.4 426.6,568.9 430.9,570.0 435.2,570.0 443.9,426.0 448.2,426.0 452.5,426.0 456.8,426.0 461.1,426.0 465.5,426.0 469.8,426.0 474.1,426.0 478.4,426.0 482.7,426.0 487.0,426.0 491.4,426.0 495.7,426.0 500.0,426.0 504.3,426.0 508.6,426.0 513.0,426.0 517.3,426.0 521.6,426.0 525.9,426.0 530.2,426.0 534.5,426.0 538.9,426.0 543.2,426.0 547.5,426.0 551.8,426.0 556.1,426.0 560.4,426.0 564.8,426.0 569.1,426.0 573.4,426.0 577.7,426.0 582.0,426.0 586.3,426.0 590.7,426.0 595.0,426.0 599.3,426.0 603.6,426.0 607.9,426.0 612.2,426.0 616.6,426.0 620.9,426.0 625.2,426.0 629.5,426.0 633.8,426.0 638.1,426.0 642.5,426.0 646.8,426.0 651.1,426.0 655.4,426.0 659.7,426.0 664.0,426.0 668.4,426.0 672.7,426.0 677.0,426.0 681.3,430.8 685.6,487.6 689.9,566.9 694.3,426.0 698.6,426.0 702.9,426.0 707.2,426.0 711.5,426.0 715.8,426.0 720.2,426.0 724.5,426.0 728.8,426.0 733.1,426.0 737.4,426.0 741.7,426.0 746.1,426.0 750.4,426.0 754.7,426.0 759.0,426.0 763.3,426.0 767.6,426.0 772.0,426.0 776.3,426.0 780.6,426.0 784.9,426.0 789.2,426.0 793.5,426.0 797.9,426.0 802.2,426.0 806.5,426.0 810.8,426.0 815.1,426.0 819.4,426.0 823.8,426.0 828.1,426.0 832.4,426.0 836.7,426.0 841.0,426.0 845.3,426.0 849.7,426.0 854.0,426.0 858.3,426.0 862.6,426.0 866.9,426.0 871.2,426.0 875.6,426.0 879.9,426.0 884.2,426.0 888.5,426.0 892.8,426.0 897.1,426.0 901.5,426.0 905.8,426.0 910.1,426.0 914.4,426.0 918.7,426.0 923.0,427.4 927.4,480.0 931.7,563.8 936.0,569.7 "/><line x1="64" y1="760" x2="936" y2="760" stroke="#bbb"/><line x1="64" y1="616" x2="64" y2="760" stroke="#bbb"/><text x="64" y="612" font-weight="bold" fill="#9333ea">CPU (%)</text><text x="58" y="620" text-anchor="end" fill="#666">68.3</text><text x="58" y="764" text-anchor="end" fill="#666">0</text><text x="936" y="778" text-anchor="end" fill="#666">50.5s</text><polyline fill="none" stroke="#9333ea" stroke-width="1.5" points="68.3,710.6 72.6,701.9 77.0,706.0 81.3,705.9 85.6,707.8 89.9,719.0 94.2,747.9 98.5,760.0 102.9,697.2 107.2,701.9 111.5,711.3 115.8,701.6 120.1,705.7 124.4,726.4 128.8,756.7 133.1,760.0 137.4,709.4 141.7,682.9 146.0,709.0 150.3,705.9 154.7,702.4 159.0,726.1 163.3,754.9 167.6,760.0 171.9,760.0 176.2,718.1 180.6,681.1 184.9,710.1 189.2,707.3 193.5,707.2 197.8,725.0 202.1,754.6 206.5,760.0 210.8,760.0 215.1,665.4 219.4,702.7 223.7,709.7 228.0,697.6 232.4,714.2 236.7,741.7 241.0,759.9 245.3,759.9 249.6,715.7 253.9,681.9 258.3,714.5 262.6,708.0 266.9,703.3 271.2,729.6 275.5,756.2 279.8,759.9 284.2,760.0 288.5,664.0 292.8,709.4 297.1,713.4 301.4,702.3 305.7,714.2 310.1,739.7 314.4,759.5 318.7,759.9 323.0,677.3 327.3,703.7 331.6,708.5 336.0,693.5 340.3,700.5 344.6,733.5 348.9,759.2 353.2,760.0 357.5,665.5 361.9,705.9 366.2,707.4 370.5,694.8 374.8,712.0 379.1,741.2 383.4,759.6 387.8,760.0 392.1,760.0 396.4,760.0 400.7,682.1 405.0,700.6 409.3,709.7 413.7,689.6 418.0,706.1 422.3,737.9 426.6,758.2 430.9,760.0 435.2,760.0 443.9,758.3 448.2,657.8 452.5,618.4 456.8,616.0 461.1,619.0 465.5,617.7 469.8,625.4 474.1,636.4 478.4,696.1 482.7,658.2 487.0,650.7 491.4,659.1 495.7,662.6 500.0,664.8 504.3,667.1 508.6,667.4 513.0,666.5 517.3,665.9 521.6,666.9 525.9,666.6 530.2,665.3 534.5,666.1 538.9,666.3 543.2,667.5 547.5,666.7 551.8,668.7 556.1,667.9 560.4,667.9 564.8,667.8 569.1,666.7 573.4,667.5 577.7,667.8 582.0,667.0 586.3,667.0 590.7,667.4 595.0,668.4 599.3,667.1 603.6,667.6 607.9,667.5 612.2,667.3 616.6,668.0 620.9,667.1 625.2,667.3 629.5,667.5 633.8,667.6 638.1,667.1 642.5,667.1 646.8,667.4 651.1,667.8 655.4,667.9 659.7,667.0 664.0,667.2 668.4,667.9 672.7,667.5 677.0,667.8 681.3,667.9 685.6,668.3 689.9,706.4 694.3,756.6 698.6,670.7 702.9,665.3 707.2,666.2 711.5,669.0 715.8,667.5 720.2,667.5 724.5,665.5 728.8,665.0 733.1,664.5 737.4,666.6 741.7,667.6 746.1,667.5 750.4,667.3 754.7,667.4 759.0,667.8 763.3,667.0 767.6,666.9 772.0,667.8 776.3,667.4 780.6,667.1 784.9,667.4 789.2,667.8 793.5,668.3 797.9,667.1 802.2,668.3 806.5,667.4 810.8,666.7 815.1,667.1 819.4,667.5 823.8,667.4 828.1,667.3 832.4,668.4 836.7,667.4 841.0,667.3 845.3,667.5 849.7,667.3 854.0,668.0 858.3,666.9 862.6,667.6 866.9,667.0 871.2,667.0 875.6,668.0 879.9,666.7 884.2,667.8 888.5,667.1 892.8,667.3 897.1,667.0 901.5,668.2 905.8,661.7 910.1,662.4 914.4,664.0 918.7,665.7 923.0,666.9 927.4,668.2 931.7,700.5 936.0,757.8 "/></svg>